<?xml version="1.0" standalone="no"?>
<!DOCTYPE svg PUBLIC "-//W3C//DTD SVG 20010904//EN"
 "http://www.w3.org/TR/2001/REC-SVG-20010904/DTD/svg10.dtd">
<svg version="1.0" xmlns="http://www.w3.org/2000/svg"
 width="300.000000pt" height="300.000000pt" viewBox="0 0 300.000000 300.000000"
 preserveAspectRatio="xMidYMid meet">
<metadata>
Created by potrace 1.10, written by Peter Selinger 2001-2011
</metadata>
<g transform="translate(0.000000,300.000000) scale(0.100000,-0.100000)"
fill="#000000" stroke="none">
<path d="M1180 1831 l-316 -158 73 -33 c69 -30 73 -34 73 -65 0 -17 -3 -35 -7
-38 -3 -4 -7 -40 -8 -80 -1 -39 -5 -82 -9 -94 -7 -22 -5 -23 37 -23 l44 0 -9
53 c-6 28 -7 71 -4 94 3 23 1 45 -4 48 -6 3 -10 24 -10 45 0 37 3 40 73 84
256 159 488 168 725 27 41 -25 42 -27 42 -78 0 -29 2 -53 4 -53 12 0 234 106
235 113 1 6 -614 319 -622 316 -1 0 -144 -71 -317 -158z m544 12 c105 -52 211
-104 236 -116 25 -12 55 -29 67 -38 23 -17 23 -17 -32 -43 -31 -14 -59 -26
-64 -26 -5 0 -14 14 -20 30 -5 17 -23 41 -38 55 -40 34 -182 94 -261 109 -100
19 -242 8 -318 -25 -24 -10 -44 -16 -44 -14 0 8 -153 -76 -194 -105 -36 -27
-40 -28 -63 -13 -20 13 -22 18 -11 28 7 7 125 69 262 139 178 90 254 125 269
120 11 -4 106 -49 211 -101z"/>
<path d="M1413 1730 c-64 -12 -139 -40 -198 -74 l-45 -27 0 -63 0 -63 48 -6
c67 -8 156 -41 223 -82 l57 -35 58 35 c75 45 151 73 219 81 l55 7 0 61 0 62
-52 31 c-106 64 -252 93 -365 73z m212 -45 c32 -9 81 -28 109 -43 48 -25 51
-29 51 -66 l0 -40 -67 -16 c-37 -9 -102 -34 -144 -55 l-76 -39 -32 19 c-63 37
-93 50 -166 71 -82 24 -96 37 -86 78 5 22 21 34 74 59 103 48 228 60 337 32z"/>
<path d="M941 1418 c-8 -13 -21 -33 -29 -46 -15 -23 -14 -23 14 -16 37 9 34 5
41 48 6 41 -5 47 -26 14z"/>
<path d="M1951 1429 c-175 -23 -346 -114 -458 -246 -27 -31 -70 -73 -96 -94
-47 -38 -48 -38 -22 -45 45 -11 77 6 142 76 113 122 263 204 422 230 41 7 94
10 118 6 25 -3 43 -2 41 2 -14 32 -56 82 -68 81 -8 -1 -44 -5 -79 -10z"/>
<path d="M1080 1414 c0 -50 11 -61 72 -78 71 -20 183 -75 227 -111 34 -29 53
-28 71 4 9 18 4 25 -42 61 -80 64 -195 117 -291 135 -32 6 -37 5 -37 -11z"/>
<path d="M914 1272 l-22 -37 102 4 c55 2 131 -2 168 -9 l67 -12 -5 -31 c-12
-67 -26 -113 -44 -144 -11 -18 -16 -33 -11 -33 24 0 231 152 231 170 0 16
-163 92 -236 110 -44 11 -110 20 -153 20 l-76 0 -21 -38z m397 -82 l24 -20
-34 -30 c-19 -17 -37 -27 -41 -23 -12 14 1 93 15 93 7 0 23 -9 36 -20z"/>
<path d="M1875 1295 c-119 -26 -278 -109 -345 -180 -21 -23 -16 -21 45 14 39
22 113 55 165 73 89 30 104 32 231 33 l137 0 -22 37 c-21 38 -21 38 -86 37
-36 0 -92 -6 -125 -14z"/>
</g>
</svg>
